<svg width="20" height="21" viewBox="0 0 20 21" fill="none" xmlns="http://www.w3.org/2000/svg">
<path fill-rule="evenodd" clip-rule="evenodd" d="M8.20736 13.8333C8.20736 14.2917 7.84022 14.6667 7.39151 14.6667C6.94279 14.6667 6.57565 14.2917 6.57565 13.8333V10.5C6.57565 10.0417 6.94279 9.66667 7.39151 9.66667C7.84022 9.66667 8.20736 10.0417 8.20736 10.5V13.8333ZM13.1025 13.8333C13.1025 14.2917 12.7353 14.6667 12.2866 14.6667C11.8379 14.6667 11.4708 14.2917 11.4708 13.8333V10.5C11.4708 10.0417 11.8379 9.66667 12.2866 9.66667C12.7353 9.66667 13.1025 10.0417 13.1025 10.5V13.8333ZM14.7342 16.3333C14.7342 16.7925 14.3687 17.1667 13.9183 17.1667H5.7598C5.30945 17.1667 4.94395 16.7925 4.94395 16.3333V7.16667H14.7342V16.3333ZM8.20736 4.10667C8.20736 3.97751 8.38195 3.83334 8.61528 3.83334H11.0628C11.2962 3.83334 11.4708 3.97751 11.4708 4.10667V5.50001H8.20736V4.10667ZM17.1817 5.50001H16.3659H13.1025V4.10667C13.1025 3.03667 12.1879 2.16667 11.0628 2.16667H8.61528C7.49022 2.16667 6.57565 3.03667 6.57565 4.10667V5.50001H3.31225H2.49639C2.04768 5.50001 1.68054 5.87501 1.68054 6.33334C1.68054 6.79167 2.04768 7.16667 2.49639 7.16667H3.31225V16.3333C3.31225 17.7117 4.41038 18.8333 5.7598 18.8333H13.9183C15.2677 18.8333 16.3659 17.7117 16.3659 16.3333V7.16667H17.1817C17.6304 7.16667 17.9976 6.79167 17.9976 6.33334C17.9976 5.87501 17.6304 5.50001 17.1817 5.50001Z" fill="#969696"/>
<mask id="mask0_3_1147" style="mask-type:luminance" maskUnits="userSpaceOnUse" x="1" y="2" width="17" height="17">
<path fill-rule="evenodd" clip-rule="evenodd" d="M8.20736 13.8333C8.20736 14.2917 7.84022 14.6667 7.39151 14.6667C6.94279 14.6667 6.57565 14.2917 6.57565 13.8333V10.5C6.57565 10.0417 6.94279 9.66667 7.39151 9.66667C7.84022 9.66667 8.20736 10.0417 8.20736 10.5V13.8333ZM13.1025 13.8333C13.1025 14.2917 12.7353 14.6667 12.2866 14.6667C11.8379 14.6667 11.4708 14.2917 11.4708 13.8333V10.5C11.4708 10.0417 11.8379 9.66667 12.2866 9.66667C12.7353 9.66667 13.1025 10.0417 13.1025 10.5V13.8333ZM14.7342 16.3333C14.7342 16.7925 14.3687 17.1667 13.9183 17.1667H5.7598C5.30945 17.1667 4.94395 16.7925 4.94395 16.3333V7.16667H14.7342V16.3333ZM8.20736 4.10667C8.20736 3.97751 8.38195 3.83334 8.61528 3.83334H11.0628C11.2962 3.83334 11.4708 3.97751 11.4708 4.10667V5.50001H8.20736V4.10667ZM17.1817 5.50001H16.3659H13.1025V4.10667C13.1025 3.03667 12.1879 2.16667 11.0628 2.16667H8.61528C7.49022 2.16667 6.57565 3.03667 6.57565 4.10667V5.50001H3.31225H2.49639C2.04768 5.50001 1.68054 5.87501 1.68054 6.33334C1.68054 6.79167 2.04768 7.16667 2.49639 7.16667H3.31225V16.3333C3.31225 17.7117 4.41038 18.8333 5.7598 18.8333H13.9183C15.2677 18.8333 16.3659 17.7117 16.3659 16.3333V7.16667H17.1817C17.6304 7.16667 17.9976 6.79167 17.9976 6.33334C17.9976 5.87501 17.6304 5.50001 17.1817 5.50001Z" fill="white"/>
</mask>
<g mask="url(#mask0_3_1147)">
</g>
</svg>
