<svg width="21" height="21" viewBox="0 0 21 21" fill="none" xmlns="http://www.w3.org/2000/svg">
<path fill-rule="evenodd" clip-rule="evenodd" d="M5.86747 13.7279L8.29626 13.5021L12.865 8.83126L10.6655 6.58376L6.08285 11.2646L5.86747 13.7279ZM11.7587 5.46792L13.9575 7.71376L15.5459 6.08876L13.348 3.84376L11.7587 5.46792ZM4.3908 15.2379C4.21947 15.0629 4.1338 14.8196 4.15502 14.5729L4.46422 11.0979C4.49849 10.7171 4.66329 10.3579 4.92926 10.0863L12.2687 2.58959C12.8414 2.00209 13.88 2.03126 14.4845 2.64709L16.7183 4.92876L16.7191 4.92959C17.3433 5.56792 17.3686 6.58292 16.7746 7.19126L9.43439 14.6888C9.16924 14.9596 8.81761 15.1279 8.44395 15.1629L5.04185 15.4788C5.01737 15.4804 4.9929 15.4813 4.9676 15.4813C4.75304 15.4813 4.54499 15.3946 4.3908 15.2379ZM17.2054 17.9813C17.2054 18.4396 16.8382 18.8146 16.3895 18.8146H4.96759C4.51968 18.8146 4.15173 18.4396 4.15173 17.9813C4.15173 17.5238 4.51968 17.1479 4.96759 17.1479H16.3895C16.8382 17.1479 17.2054 17.5238 17.2054 17.9813Z" fill="#969696"/>
</svg>
