<svg width="21" height="21" viewBox="0 0 21 21" fill="none" xmlns="http://www.w3.org/2000/svg">
<path fill-rule="evenodd" clip-rule="evenodd" d="M10.5178 11.75C9.84304 11.75 9.29397 11.1892 9.29397 10.5C9.29397 9.81083 9.84304 9.25 10.5178 9.25C11.1925 9.25 11.7415 9.81083 11.7415 10.5C11.7415 11.1892 11.1925 11.75 10.5178 11.75ZM10.5178 7.58333C8.94316 7.58333 7.66227 8.89166 7.66227 10.5C7.66227 12.1083 8.94316 13.4167 10.5178 13.4167C12.0923 13.4167 13.3732 12.1083 13.3732 10.5C13.3732 8.89166 12.0923 7.58333 10.5178 7.58333ZM10.697 14.6647C7.18394 14.748 4.89221 11.6788 4.13183 10.4963C4.9689 9.15883 7.07706 6.4205 10.3388 6.3355C13.838 6.24466 16.1428 9.32133 16.9032 10.5038C16.0669 11.8413 13.958 14.5797 10.697 14.6647ZM18.5683 10.0855C18.0478 9.15883 15.1728 4.51383 10.2972 4.66966C5.7872 4.78633 3.16423 8.84466 2.4675 10.0855C2.32309 10.3422 2.32309 10.658 2.4675 10.9147C2.98067 11.8288 5.75456 16.333 10.5379 16.333C10.6048 16.333 10.6717 16.3322 10.7386 16.3305C15.2478 16.213 17.8716 12.1555 18.5683 10.9147C18.7119 10.658 18.7119 10.3422 18.5683 10.0855Z" fill="#969696"/>
<mask id="mask0_3_1145" style="mask-type:luminance" maskUnits="userSpaceOnUse" x="2" y="4" width="17" height="13">
<path fill-rule="evenodd" clip-rule="evenodd" d="M10.5178 11.75C9.84304 11.75 9.29397 11.1892 9.29397 10.5C9.29397 9.81083 9.84304 9.25 10.5178 9.25C11.1925 9.25 11.7415 9.81083 11.7415 10.5C11.7415 11.1892 11.1925 11.75 10.5178 11.75ZM10.5178 7.58333C8.94316 7.58333 7.66227 8.89166 7.66227 10.5C7.66227 12.1083 8.94316 13.4167 10.5178 13.4167C12.0923 13.4167 13.3732 12.1083 13.3732 10.5C13.3732 8.89166 12.0923 7.58333 10.5178 7.58333ZM10.697 14.6647C7.18394 14.748 4.89221 11.6788 4.13183 10.4963C4.9689 9.15883 7.07706 6.4205 10.3388 6.3355C13.838 6.24466 16.1428 9.32133 16.9032 10.5038C16.0669 11.8413 13.958 14.5797 10.697 14.6647ZM18.5683 10.0855C18.0478 9.15883 15.1728 4.51383 10.2972 4.66966C5.7872 4.78633 3.16423 8.84466 2.4675 10.0855C2.32309 10.3422 2.32309 10.658 2.4675 10.9147C2.98067 11.8288 5.75456 16.333 10.5379 16.333C10.6048 16.333 10.6717 16.3322 10.7386 16.3305C15.2478 16.213 17.8716 12.1555 18.5683 10.9147C18.7119 10.658 18.7119 10.3422 18.5683 10.0855Z" fill="white"/>
</mask>
<g mask="url(#mask0_3_1145)">
</g>
</svg>
